#N canvas 0 23 1366 719 10;
#X obj 212 -14 loadbang;
#X obj 212 46 phoreo 4 1;
#X obj 295 847 dac~;
#X obj 209 22 metro 900;
#X obj 614 396 tonic 0 0 0 0 0 -5;
#X obj 41 504 fm2 3.1 4000 0 0 19 0 20 300;
#X obj 722 532 fm2 3.1 4000 0 0 19 0 20 300;
#X obj 456 162 stoicheia 5 0 8;
#X obj 47 594 PingpongDelay~ 4 0.5 0.5 0.5;
#X obj 56 524 line~;
#X obj 34 559 *~;
#X obj 46 306 loadbang;
#X msg 46 393 0 \, 1 1000;
#X obj 48 351 delay 1000;
#X text 914 89 A = tempo;
#X text 916 105 B = transpose;
#X text 917 125 C = intensity;
#X obj 662 144 s \$0-tempo;
#X obj 764 -49 hsl 128 15 0 1 0 0 empty empty empty -2 -8 0 10 -262144
-1 -1 0 1;
#X obj 664 0 t b f;
#X msg 663 34 1;
#X obj 663 56 -;
#X obj 662 88 * 2000;
#X obj 1099 -47 hsl 128 15 0 1 0 0 empty empty empty -2 -8 0 10 -262144
-1 -1 0 1;
#X obj 1016 115 s \$0-transpose;
#X obj 1013 4 * 40;
#X obj 1252 99 s \$0-intensity;
#X obj 649 -97 r Channel-A;
#X obj 1004 -50 r Channel-B;
#X obj 1241 -49 r Channel-C;
#X obj 662 117 + 350;
#X obj 140 -48 r \$0-tempo;
#X obj 172 310 f;
#X obj 506 339 f;
#X obj 327 168 stoicheia 4 0 8;
#X obj 226 168 stoicheia 3 0 8;
#X obj 618 260 stoicheia 5 0 8;
#X obj 728 242 stoicheia 2 0 8;
#X obj 210 326 tonic 0 0 0 0 0 9;
#X obj 140 241 r \$0-transpose;
#X obj 535 296 r \$0-transpose;
#X obj 1015 53 + 40;
#X obj 348 412 tonic 0 0 0 0 0 12;
#X obj 371 291 stoicheia 2 0 8;
#X obj 649 -75 * 20;
#X obj 649 -53 int;
#X obj 649 -31 / 20;
#X obj 1015 75 int;
#X connect 0 0 3 0;
#X connect 1 0 7 0;
#X connect 1 0 35 0;
#X connect 3 0 1 0;
#X connect 4 1 6 0;
#X connect 5 0 10 0;
#X connect 6 0 10 0;
#X connect 7 0 33 0;
#X connect 7 1 36 0;
#X connect 8 0 2 0;
#X connect 8 1 2 1;
#X connect 9 0 10 1;
#X connect 10 0 8 0;
#X connect 11 0 13 0;
#X connect 12 0 9 0;
#X connect 13 0 12 0;
#X connect 18 0 19 0;
#X connect 19 0 20 0;
#X connect 19 1 21 1;
#X connect 20 0 21 0;
#X connect 21 0 22 0;
#X connect 22 0 30 0;
#X connect 23 0 25 0;
#X connect 25 0 41 0;
#X connect 27 0 44 0;
#X connect 28 0 25 0;
#X connect 29 0 26 0;
#X connect 30 0 17 0;
#X connect 31 0 3 1;
#X connect 31 0 8 1;
#X connect 32 0 38 0;
#X connect 33 0 4 0;
#X connect 34 0 38 5;
#X connect 34 1 38 1;
#X connect 34 1 38 3;
#X connect 35 0 32 0;
#X connect 35 0 34 0;
#X connect 36 1 37 0;
#X connect 37 0 4 2;
#X connect 37 1 4 5;
#X connect 38 1 42 0;
#X connect 38 1 43 0;
#X connect 39 0 32 1;
#X connect 40 0 33 1;
#X connect 41 0 47 0;
#X connect 42 1 5 0;
#X connect 43 1 42 5;
#X connect 44 0 45 0;
#X connect 45 0 46 0;
#X connect 46 0 19 0;
#X connect 47 0 24 0;
