#N canvas 5 23 1366 719 10;
#X obj 222 -37 loadbang;
#X obj 155 1024 dac~;
#X obj 613 552 tonic 0 0 0 0 0 -5;
#X obj 93 655 fm2 3.1 4000 0 0 19 0 20 300;
#X obj 721 688 fm2 3.1 4000 0 0 19 0 20 300;
#X obj 494 317 stoicheia 5 0 8;
#X text 914 89 A = tempo;
#X text 916 105 B = transpose;
#X text 917 125 C = intensity;
#X obj 658 167 s \$0-tempo;
#X obj 764 -49 hsl 128 15 0 1 0 0 empty empty empty -2 -8 0 10 -262144
-1 -1 6200 1;
#X obj 664 15 t b f;
#X msg 663 49 1;
#X obj 663 71 -;
#X obj 662 103 * 2000;
#X obj 1099 -47 hsl 128 15 0 1 0 0 empty empty empty -2 -8 0 10 -262144
-1 -1 5400 1;
#X obj 1015 134 s \$0-transpose;
#X obj 1235 108 s \$0-intensity;
#X obj 649 -97 r Channel-A;
#X obj 1004 -50 r Channel-B;
#X obj 1235 -56 r Channel-C;
#X obj 662 132 + 350;
#X obj 142 -57 r \$0-tempo;
#X obj 171 466 f;
#X obj 505 495 f;
#X obj 327 320 stoicheia 4 0 8;
#X obj 223 294 stoicheia 3 0 8;
#X obj 617 416 stoicheia 5 0 8;
#X obj 725 417 stoicheia 2 0 8;
#X obj 209 482 tonic 0 0 0 0 0 9;
#X obj 139 397 r \$0-transpose;
#X obj 534 452 r \$0-transpose;
#X obj 303 564 tonic 0 0 0 0 0 12;
#X obj 649 -75 * 20;
#X obj 649 -53 int;
#X obj 649 -7 / 20;
#X obj 1015 75 int;
#X obj 649 -31 change;
#X obj 1015 97 change;
#X obj 1241 -5 int;
#X obj 1241 17 change;
#X obj 517 35 r \$0-intensity;
#X obj 1090 353 hsl 128 15 0 1 0 0 empty empty empty -2 -8 0 10 -262144
-1 -1 6000 1;
#X obj 342 -73 r \$0-intensity;
#X obj 353 52 + 8, f 2;
#X obj 523 109 + 8;
#X obj 523 87 * 8;
#X obj 510 -86 r \$0-intensity;
#X obj 516 -34 * 8;
#X obj 370 447 stoicheia 2 0 8;
#X obj 517 1 + 14;
#X obj 1241 -27 * 20;
#X obj 1241 54 / 20;
#X obj 436 869 * 20;
#X obj 436 913 + 1;
#X obj 436 891 mod 8;
#X obj 327 796 r \$0-intensity;
#X obj 327 818 + 0.5;
#X obj 327 840 / 2;
#X obj 36 15 chronos;
#X floatatom 88 23 5 0 0 0 - - -, f 5;
#X obj 399 170 scaling 0 1 8 14;
#X obj 349 10 * 4;
#X obj 932 205 r \$0-intensity;
#X obj 928 303 s \$0-chaos;
#X obj 397 278 spigot;
#X obj 445 247 r \$0-chaos;
#X obj 99 -11 * 100;
#X obj 929 258 > 0.8;
#X obj 913 425 r \$0-intensity;
#X obj 935 472 r \$0-chaos;
#X obj 917 507 spigot;
#X obj 920 563 - 0.8;
#X obj 87 723 *~ 0.3;
#X obj 721 753 *~ 0.3;
#X obj 974 591 * 25;
#X obj 995 632 + 8;
#X obj 919 532 clip 0.8 1;
#X obj 622 282 * 1.6;
#X obj 436 847 r \$0-tempobase;
#X obj 748 108 s \$0-tempobase;
#X obj 1015 53 + 40;
#X obj 1013 4 * 24;
#X obj 70 795 pingpong2vd~ 3 0.7 0.8 0.5;
#X obj 183 -21 / 4;
#X obj 209 22 metro 200;
#X obj 44 229 * 1.2;
#X obj 18 121 scaling 0 1 2 6;
#X connect 0 0 85 0;
#X connect 2 1 4 0;
#X connect 3 0 73 0;
#X connect 4 0 74 0;
#X connect 5 0 24 0;
#X connect 5 1 27 0;
#X connect 10 0 11 0;
#X connect 11 0 12 0;
#X connect 11 1 13 1;
#X connect 12 0 13 0;
#X connect 13 0 14 0;
#X connect 14 0 21 0;
#X connect 15 0 82 0;
#X connect 18 0 33 0;
#X connect 19 0 82 0;
#X connect 20 0 51 0;
#X connect 21 0 9 0;
#X connect 22 0 67 0;
#X connect 22 0 83 1;
#X connect 22 0 84 0;
#X connect 23 0 29 0;
#X connect 24 0 2 0;
#X connect 25 0 29 5;
#X connect 25 1 29 1;
#X connect 25 1 29 3;
#X connect 26 0 23 0;
#X connect 26 0 25 0;
#X connect 27 1 28 0;
#X connect 28 0 2 2;
#X connect 28 1 2 5;
#X connect 29 1 32 0;
#X connect 29 1 49 0;
#X connect 30 0 23 1;
#X connect 31 0 24 1;
#X connect 32 1 3 0;
#X connect 33 0 34 0;
#X connect 34 0 37 0;
#X connect 35 0 11 0;
#X connect 35 0 80 0;
#X connect 36 0 38 0;
#X connect 37 0 35 0;
#X connect 38 0 16 0;
#X connect 39 0 40 0;
#X connect 40 0 52 0;
#X connect 41 0 46 0;
#X connect 42 0 51 0;
#X connect 43 0 62 0;
#X connect 44 0 26 3;
#X connect 45 0 5 3;
#X connect 46 0 45 0;
#X connect 47 0 48 0;
#X connect 48 0 50 0;
#X connect 49 1 32 5;
#X connect 50 0 49 3;
#X connect 51 0 39 0;
#X connect 52 0 17 0;
#X connect 53 0 55 0;
#X connect 54 0 83 2;
#X connect 55 0 54 0;
#X connect 56 0 57 0;
#X connect 57 0 58 0;
#X connect 58 0 83 4;
#X connect 59 1 61 0;
#X connect 59 1 87 0;
#X connect 61 0 65 0;
#X connect 61 0 78 0;
#X connect 62 0 44 0;
#X connect 63 0 68 0;
#X connect 65 0 26 3;
#X connect 66 0 65 1;
#X connect 67 0 59 1;
#X connect 68 0 64 0;
#X connect 69 0 71 0;
#X connect 70 0 71 1;
#X connect 71 0 77 0;
#X connect 72 0 75 0;
#X connect 73 0 83 0;
#X connect 74 0 83 0;
#X connect 75 0 76 0;
#X connect 76 0 61 4;
#X connect 77 0 72 0;
#X connect 78 0 5 3;
#X connect 79 0 53 0;
#X connect 81 0 36 0;
#X connect 82 0 81 0;
#X connect 83 0 1 0;
#X connect 83 1 1 1;
#X connect 84 0 85 1;
#X connect 85 0 26 0;
#X connect 85 0 5 0;
#X connect 86 0 25 1;
#X connect 87 0 26 1;
#X connect 87 0 86 0;
#X connect 87 0 27 1;
