#N canvas 0 22 750 470 10;
#X obj 53 179 osc~;
#X obj 36 263 +~;
#X obj 52 225 *~;
#X obj 53 153 *~;
#X obj 24 87 mtof;
#X obj 25 112 t f f;
#X floatatom 148 129 5 0 0 0 ratio - -, f 5;
#X floatatom 148 144 5 0 0 0 depth - -, f 5;
#X obj 35 326 outlet~, f 9;
#X obj 24 62 inlet;
#X obj 164 37 inlet;
#X obj 160 73 \$1;
#X obj 211 35 loadbang;
#X obj 279 35 inlet;
#X obj 326 33 loadbang;
#X obj 275 71 \$2;
#X obj 36 294 osc~;
#X connect 0 0 2 0;
#X connect 1 0 16 0;
#X connect 2 0 1 1;
#X connect 3 0 0 0;
#X connect 4 0 5 0;
#X connect 5 0 1 0;
#X connect 5 1 3 0;
#X connect 6 0 3 1;
#X connect 7 0 2 1;
#X connect 9 0 4 0;
#X connect 10 0 11 0;
#X connect 11 0 6 0;
#X connect 12 0 11 0;
#X connect 13 0 15 0;
#X connect 14 0 15 0;
#X connect 15 0 7 0;
#X connect 16 0 8 0;
#X coords 0 -1 1 1 85 60 1 100 100;
