#N canvas 867 387 1053 586 10;
#X obj 110 519 inlet~;
#X obj 112 766 lop~ 3000;
#X obj 534 784 lop~ 3000;
#X obj 603 837 *~;
#X obj 60 823 *~;
#X obj 172 449 inlet;
#X obj 116 989 outlet~;
#X obj 541 981 outlet~;
#X obj 432 507 inlet;
#X obj 626 531 inlet;
#X obj 765 535 inlet;
#X obj 240 586 *;
#X obj 434 557 * 127;
#X obj 432 589 mtof;
#X obj 557 617 clip 0 0.99;
#X obj 311 324 hsl 100 15 1 8 0 1 empty empty empty -2 -8 0 10 -262144
-1 -1 5100 1;
#X obj 249 504 inlet;
#X obj 254 553 int;
#X obj 313 368 hsl 100 15 0 1 0 1 empty empty empty -2 -8 0 10 -262144
-1 -1 5200 1;
#X obj 317 412 hsl 100 15 0 1 0 1 empty empty empty -2 -8 0 10 -262144
-1 -1 0 1;
#X obj 317 458 hsl 100 15 0 1 0 1 empty empty empty -2 -8 0 10 -262144
-1 -1 0 1;
#X obj 117 867 *~;
#X obj 199 875 *~;
#X obj 535 880 *~;
#X obj 580 882 *~;
#X obj 756 682 sqrt;
#X obj 818 614 t f b;
#X msg 849 660 1;
#X obj 824 698 -;
#X obj 814 747 sqrt;
#X text 378 343 time;
#X text 377 389 tone;
#X text 355 434 feedback;
#X text 388 482 mix;
#X obj 287 212 \$1;
#X obj 333 213 \$2;
#X obj 379 214 \$3;
#X obj 426 215 \$4;
#X obj 307 145 loadbang;
#X obj 157 479 * 0.25;
#X obj 176 518 t b f;
#X obj 113 654 delwrite~ \$0-ping 1000;
#X obj 530 679 delwrite~ \$0-pong 1000;
#X obj 317 624 line~;
#X msg 243 612 \$1 100;
#X obj 112 698 vd~ \$0-ping 500;
#X obj 530 718 vd~ \$0-pong 500;
#X connect 0 0 22 0;
#X connect 0 0 24 0;
#X connect 0 0 41 0;
#X connect 1 0 4 0;
#X connect 1 0 21 0;
#X connect 2 0 3 0;
#X connect 2 0 23 0;
#X connect 3 0 41 0;
#X connect 4 0 42 0;
#X connect 5 0 39 0;
#X connect 8 0 18 0;
#X connect 9 0 19 0;
#X connect 10 0 20 0;
#X connect 11 0 44 0;
#X connect 12 0 13 0;
#X connect 13 0 1 1;
#X connect 13 0 2 1;
#X connect 14 0 3 1;
#X connect 14 0 4 1;
#X connect 15 0 17 0;
#X connect 16 0 15 0;
#X connect 17 0 11 0;
#X connect 18 0 12 0;
#X connect 19 0 14 0;
#X connect 20 0 25 0;
#X connect 20 0 26 0;
#X connect 21 0 6 0;
#X connect 22 0 6 0;
#X connect 23 0 7 0;
#X connect 24 0 7 0;
#X connect 25 0 21 1;
#X connect 25 0 23 1;
#X connect 26 0 28 1;
#X connect 26 1 27 0;
#X connect 27 0 28 0;
#X connect 28 0 29 0;
#X connect 29 0 24 1;
#X connect 29 0 22 1;
#X connect 34 0 15 0;
#X connect 35 0 18 0;
#X connect 36 0 19 0;
#X connect 37 0 20 0;
#X connect 38 0 34 0;
#X connect 38 0 35 0;
#X connect 38 0 36 0;
#X connect 38 0 37 0;
#X connect 39 0 40 0;
#X connect 40 0 17 0;
#X connect 40 1 11 1;
#X connect 43 0 45 0;
#X connect 43 0 46 0;
#X connect 44 0 43 0;
#X connect 45 0 1 0;
#X connect 46 0 2 0;
#X coords 0 -1 1 1 150 200 1 300 300;
