#N canvas 1799 298 611 643 10;
#X obj -158 285 osc~;
#X obj -152 78 inlet~;
#X obj -151 215 mtof~;
#X obj -149 150 lop~ 100;
#X obj -78 285 osc~;
#X obj -71 215 mtof~;
#X obj -69 150 lop~ 100;
#X obj 13 285 osc~;
#X obj 20 215 mtof~;
#X obj 22 150 lop~ 100;
#X obj -69 74 inlet~;
#X obj 23 75 inlet~;
#X obj -154 351 *~ 0.33;
#X obj -151 436 outlet~;
#X floatatom 113 113 5 0 0 0 - - -, f 5;
#X obj 123 74 inlet;
#X obj 194 97 \$1;
#X obj 200 65 loadbang;
#X text 111 132 porto;
#X connect 0 0 12 0;
#X connect 1 0 3 0;
#X connect 2 0 0 0;
#X connect 3 0 2 0;
#X connect 4 0 12 0;
#X connect 5 0 4 0;
#X connect 6 0 5 0;
#X connect 7 0 12 0;
#X connect 8 0 7 0;
#X connect 9 0 8 0;
#X connect 10 0 6 0;
#X connect 11 0 9 0;
#X connect 12 0 13 0;
#X connect 14 0 9 1;
#X connect 14 0 6 1;
#X connect 14 0 3 1;
#X connect 15 0 14 0;
#X connect 16 0 14 0;
#X connect 17 0 16 0;
#X coords 0 -1 1 1 85 60 1 100 100;
