#N canvas 0 23 1366 719 10;
#X obj 38 -7 inlet;
#X obj 49 237 select 1;
#X obj 48 310 outlet;
#X obj 452 17 inlet;
#X text 89 -18 <-- send an integer to find out if there should be a
hit on that beat;
#X text 131 274 <-- bang out on each hit. (Silent on rest.);
#X obj 128 313 outlet;
#X obj 128 283 bng 15 250 50 0 empty empty empty 17 7 0 10 -262144
-1 -1;
#X text 48 349 Generates 'euclidean rhythms' (see cgm.cs.mcgill.ca/~godfried/publications/banff.pdf).
Ideally to be used with a [metro]-powered [f ]x[+ 1] counter attached
to the first inlet. Hits per bar \, offset and bar length can be set
by the first three arguments respectively. Patch based on this implementation
of Euclid's algorithm https://forum.pdpatchrepo.info/user/stutter;
#X obj 47 51 + 1;
#X obj 90 53 f;
#X obj 453 47 int;
#X floatatom 147 178 5 0 0 0 length - -, f 5;
#X obj 49 172 %;
#X obj 501 44 \$3;
#X obj 502 0 loadbang;
#X obj 151 69 inlet;
#X obj 150 106 int;
#X obj 203 21 loadbang;
#X floatatom 144 131 5 0 0 0 hits - -, f 5;
#X obj 204 66 \$1;
#X obj 293 29 inlet;
#X obj 294 59 int;
#X obj 356 16 loadbang;
#X obj 342 56 \$2;
#X floatatom 148 152 5 0 0 0 offset - -, f 5;
#X obj 49 107 +;
#X obj 49 139 *;
#X obj 49 205 <;
#X obj 130 193 bng 15 250 50 0 empty empty empty 17 7 0 10 -262144
-1 -1;
#X connect 0 0 10 0;
#X connect 1 0 29 0;
#X connect 1 1 7 0;
#X connect 3 0 11 0;
#X connect 7 0 6 0;
#X connect 9 0 10 1;
#X connect 9 0 26 0;
#X connect 10 0 9 0;
#X connect 11 0 12 0;
#X connect 12 0 13 1;
#X connect 13 0 28 0;
#X connect 14 0 11 0;
#X connect 15 0 14 0;
#X connect 16 0 17 0;
#X connect 17 0 19 0;
#X connect 18 0 20 0;
#X connect 19 0 27 1;
#X connect 19 0 28 1;
#X connect 20 0 17 0;
#X connect 21 0 22 0;
#X connect 22 0 25 0;
#X connect 23 0 24 0;
#X connect 24 0 22 0;
#X connect 25 0 26 1;
#X connect 26 0 27 0;
#X connect 27 0 13 0;
#X connect 28 0 1 0;
#X connect 29 0 2 0;
#X coords 0 719 1 718 85 110 0;
