#N canvas 127 235 754 509 10;
#X obj 271 272 osc~;
#X obj 269 234 line~;
#X obj 265 143 * 1600;
#N canvas 0 23 537 405 bilexp 0;
#X obj 209 53 inlet;
#X obj 209 75 t b;
#X obj 209 97 random 8192;
#X obj 210 131 mod 4096;
#X obj 209 153 / 4096;
#X obj 209 175 * 9;
#X obj 209 241 / 23000;
#X obj 209 263 outlet;
#X obj 337 131 > 4096;
#X obj 337 153 sel 0 1;
#X msg 377 177 1;
#X msg 337 178 -1;
#X obj 209 219 *;
#X obj 165 200 exp;
#X connect 0 0 1 0;
#X connect 1 0 2 0;
#X connect 2 0 3 0;
#X connect 2 0 8 0;
#X connect 3 0 4 0;
#X connect 4 0 5 0;
#X connect 5 0 13 0;
#X connect 6 0 7 0;
#X connect 8 0 9 0;
#X connect 9 0 11 0;
#X connect 9 1 10 0;
#X connect 10 0 12 1;
#X connect 11 0 12 1;
#X connect 12 0 6 0;
#X connect 13 0 12 0;
#X restore 263 113 pd bilexp;
#X obj 256 50 loadbang;
#X obj 269 205 pack 1 2.689;
#X obj 269 412 outlet~;
#X obj 361 300 clip~ 0 1;
#X obj 360 323 lop~ 10;
#X obj 362 351 *~ 0.9;
#X obj 361 378 *~;
#X obj 269 364 *~;
#X obj 269 172 + \$2;
#X obj 266 80 metro \$1;
#X obj 376 224 delread~ \$0-water 0.0208333;
#X obj 362 274 -~;
#X obj 270 389 *~ 0.1;
#X obj 383 189 delwrite~ \$0-water 0.0209;
#X connect 0 0 11 0;
#X connect 1 0 0 0;
#X connect 1 0 15 0;
#X connect 1 0 17 0;
#X connect 2 0 12 0;
#X connect 3 0 2 0;
#X connect 4 0 13 0;
#X connect 5 0 1 0;
#X connect 7 0 8 0;
#X connect 8 0 9 0;
#X connect 9 0 10 0;
#X connect 9 0 10 1;
#X connect 10 0 11 1;
#X connect 11 0 16 0;
#X connect 12 0 5 0;
#X connect 13 0 3 0;
#X connect 14 0 15 1;
#X connect 15 0 7 0;
#X connect 16 0 6 0;
