#N canvas 0 22 429 473 10;
#X obj 95 261 vcf~ 600 23;
#X obj 194 262 vcf~ 600 23;
#X obj 131 146 *~ 80000;
#X obj 230 175 *~ 160000;
#X obj 131 170 clip~ 0 1000;
#X obj 230 200 clip~ 0 1000;
#X obj 95 325 *~;
#X obj 59 137 lop~ 1;
#X obj 130 123 lop~ 0.1;
#X obj 231 122 lop~ 0.19;
#X obj 94 349 bp~ 1000 7;
#X obj 56 217 +~ 0.5;
#X msg 176 239 7;
#X msg 280 237 20;
#X obj 56 189 *~ 2000;
#X obj 56 163 *~;
#X obj 314 221 loadbang;
#X obj 94 294 *~ 0.45;
#X obj 130 46 noise~;
#X obj 131 229 +~ 500;
#X obj 231 232 +~ 600;
#X text 127 17 Wind 2;
#X obj 95 400 outlet~;
#X connect 0 0 17 0;
#X connect 1 0 17 0;
#X connect 2 0 4 0;
#X connect 3 0 5 0;
#X connect 4 0 19 0;
#X connect 5 0 20 0;
#X connect 6 0 10 0;
#X connect 7 0 15 0;
#X connect 7 0 15 1;
#X connect 8 0 2 0;
#X connect 9 0 3 0;
#X connect 10 0 22 0;
#X connect 11 0 6 1;
#X connect 12 0 0 2;
#X connect 13 0 1 2;
#X connect 14 0 11 0;
#X connect 15 0 14 0;
#X connect 16 0 13 0;
#X connect 16 0 12 0;
#X connect 17 0 6 0;
#X connect 18 0 0 0;
#X connect 18 0 1 0;
#X connect 18 0 7 0;
#X connect 18 0 8 0;
#X connect 18 0 9 0;
#X connect 19 0 0 1;
#X connect 20 0 1 1;
